<svg width="180" height="180" viewBox="0 0 180 180" fill="none" xmlns="http://www.w3.org/2000/svg">
  <rect width="180" height="180" rx="24" fill="#0a0a0a"/>
  <!-- Hexagon outline -->
  <path d="M90 18 L155 50 L155 114 L90 146 L25 114 L25 50 Z" stroke="#a855f7" stroke-width="4" fill="none" opacity="0.9"/>
  <path d="M90 26 L149 55 L149 109 L90 138 L31 109 L31 55 Z" stroke="#a855f7" stroke-width="2" fill="none" opacity="0.4"/>
  <!-- C letter -->
  <path d="M72 68 C58 68 48 78 48 90 C48 102 58 112 72 112 C80 112 86 108 89 103" stroke="white" stroke-width="8" stroke-linecap="round" fill="none"/>
  <!-- L letter with arrow -->
  <line x1="104" y1="68" x2="104" y2="112" stroke="white" stroke-width="8" stroke-linecap="round"/>
  <line x1="104" y1="112" x2="130" y2="112" stroke="white" stroke-width="8" stroke-linecap="round"/>
  <!-- Arrow on L going up -->
  <line x1="104" y1="68" x2="104" y2="52" stroke="#a855f7" stroke-width="5" stroke-linecap="round"/>
  <polyline points="95,60 104,48 113,60" stroke="#a855f7" stroke-width="5" stroke-linecap="round" stroke-linejoin="round" fill="none"/>
  <!-- Bottom bar -->
  <line x1="50" y1="130" x2="130" y2="130" stroke="#a855f7" stroke-width="3" stroke-linecap="round" opacity="0.6"/>
</svg>
